<?xml version="1.0"?>
<svg xmlns="http://www.w3.org/2000/svg" viewBox="0 108 500 234" role="img" aria-label="Mario Jarcu — Salon Concept">
  <g fill="#EDE7DC">
    <path xmlns="http://www.w3.org/2000/svg" d="M261.34,214.33c6.2.85,12.83-4.01,12.85-10.66l.15-53.86-23.09,23.18-22.16-22.95-.09,46.66c0,1.69-2.91,2.1-3.83,1.39-1.65-1.28-2.04-2.64-2.04-4.66l-.06-54.65c0-.44.62-1.47,1-1.59.46-.15,1.09.32,1.64.89l25.68,26.62,26.87-27.31,1.15-.34c.31-.09.73.62.95,1.06l-.06,65.87c-.8,6-3.84,10.95-8.3,13.67-5.35,3.26-11.53,3.55-16.87.82-4.98-2.55-8.32-7.5-8.2-13.06.03-1.61,1.65-3.09,2.79-3.02,1.91.12,2.81,1.57,2.95,3.39.34,4.44,3.75,7.86,8.66,8.53Z"></path>
    <path xmlns="http://www.w3.org/2000/svg" d="M259.08,205.19c1.18-.82,3.33-1.71,3.33-3.68v-24.7c-.95.75-2.17,1.83-2.99,1.81-1.59-.03-2.44-2.82-1.44-3.9,3.22-3.45,6.2-6.67,10.18-9.93l.1,37.54c0,3.14-2.66,5.93-5.38,6.17-1.79.15-4.28-1.37-3.81-3.31Z"></path>
  </g>
  <path fill="#EDE7DC" fill-rule="evenodd" d="M251.71,237.47c-34.04,0-61.74-27.7-61.74-61.74s27.7-61.74,61.74-61.74,61.74,27.7,61.74,61.74-27.7,61.74-61.74,61.74ZM251.71,119.08c-31.24,0-56.65,25.41-56.65,56.65s25.41,56.65,56.65,56.65,56.65-25.41,56.65-56.65-25.41-56.65-56.65-56.65Z"></path>
  <g transform="translate(12.25,0)">
    <g fill="#EDE7DC"><path d="M45.42,303.3v-33.6h3.94l15.07,25.39h-2.11l14.88-25.39h3.94l.05,33.6h-4.61l-.05-26.35h1.1l-13.25,22.27h-2.21l-13.34-22.27h1.2v26.35h-4.61Z"></path><path d="M90.97,303.3l15.22-33.6h4.75l15.26,33.6h-5.04l-13.58-30.91h1.92l-13.58,30.91h-4.94ZM97.45,294.9l1.3-3.84h18.91l1.39,3.84h-21.6Z"></path><path d="M135.99,303.3v-33.6h13.1c4.35,0,7.78,1.03,10.27,3.1,2.5,2.06,3.74,4.94,3.74,8.62,0,2.43-.56,4.52-1.68,6.26-1.12,1.74-2.72,3.08-4.8,4.01-2.08.93-4.59,1.39-7.54,1.39h-10.46l2.16-2.21v12.43h-4.8ZM140.79,291.35l-2.16-2.35h10.32c3.07,0,5.4-.66,6.98-1.99,1.58-1.33,2.38-3.19,2.38-5.59s-.79-4.26-2.38-5.57c-1.58-1.31-3.91-1.97-6.98-1.97h-10.32l2.16-2.4v19.87ZM158.46,303.3l-8.54-12.19h5.14l8.64,12.19h-5.23Z"></path><path d="M175.69,303.3v-33.6h4.8v33.6h-4.8Z"></path><path d="M210.53,303.69c-2.56,0-4.94-.43-7.13-1.3-2.19-.86-4.09-2.07-5.69-3.62-1.6-1.55-2.85-3.37-3.74-5.45-.9-2.08-1.34-4.35-1.34-6.82s.45-4.74,1.34-6.82c.9-2.08,2.14-3.9,3.74-5.45,1.6-1.55,3.49-2.76,5.66-3.62,2.18-.86,4.56-1.3,7.15-1.3s4.92.42,7.08,1.27c2.16.85,4.05,2.05,5.66,3.6,1.62,1.55,2.86,3.37,3.74,5.45.88,2.08,1.32,4.37,1.32,6.86s-.44,4.78-1.32,6.86c-.88,2.08-2.13,3.9-3.74,5.45-1.62,1.55-3.5,2.75-5.66,3.6s-4.52,1.27-7.08,1.27ZM210.53,299.41c1.86,0,3.58-.32,5.16-.96,1.58-.64,2.96-1.54,4.13-2.71,1.17-1.17,2.08-2.54,2.74-4.1.66-1.57.98-3.28.98-5.14s-.33-3.57-.98-5.14c-.66-1.57-1.57-2.94-2.74-4.1-1.17-1.17-2.54-2.07-4.13-2.71-1.58-.64-3.3-.96-5.16-.96s-3.62.32-5.21.96c-1.58.64-2.97,1.54-4.15,2.71-1.18,1.17-2.1,2.54-2.76,4.1-.66,1.57-.98,3.28-.98,5.14s.33,3.57.98,5.14c.66,1.57,1.58,2.94,2.76,4.1,1.18,1.17,2.57,2.07,4.15,2.71,1.58.64,3.32.96,5.21.96Z"></path></g>
    <g fill="#CFA64E"><path d="M262.52,303.69c-1.98,0-3.84-.42-5.57-1.25-1.73-.83-3.14-2.03-4.22-3.6l2.78-3.26c.93,1.28,1.98,2.26,3.14,2.95,1.17.69,2.46,1.03,3.86,1.03,3.84,0,5.76-2.27,5.76-6.82v-18.86h-12.14v-4.18h16.9v22.8c0,3.74-.89,6.54-2.66,8.4-1.78,1.86-4.39,2.78-7.85,2.78Z"></path><path d="M281.81,303.3l15.22-33.6h4.75l15.26,33.6h-5.04l-13.58-30.91h1.92l-13.58,30.91h-4.94ZM288.29,294.9l1.3-3.84h18.91l1.39,3.84h-21.6Z"></path><path d="M326.84,303.3v-33.6h13.1c4.35,0,7.78,1.03,10.27,3.1,2.5,2.06,3.74,4.94,3.74,8.62,0,2.43-.56,4.52-1.68,6.26-1.12,1.74-2.72,3.08-4.8,4.01-2.08.93-4.59,1.39-7.54,1.39h-10.46l2.16-2.21v12.43h-4.8ZM331.64,291.35l-2.16-2.35h10.32c3.07,0,5.4-.66,6.98-1.99,1.58-1.33,2.38-3.19,2.38-5.59s-.79-4.26-2.38-5.57c-1.58-1.31-3.91-1.97-6.98-1.97h-10.32l2.16-2.4v19.87ZM349.3,303.3l-8.54-12.19h5.14l8.64,12.19h-5.23Z"></path><path d="M381.56,303.69c-2.56,0-4.92-.42-7.08-1.27-2.16-.85-4.03-2.05-5.62-3.6-1.58-1.55-2.82-3.37-3.72-5.45-.9-2.08-1.34-4.37-1.34-6.86s.45-4.78,1.34-6.86c.9-2.08,2.14-3.9,3.74-5.45,1.6-1.55,3.48-2.75,5.64-3.6,2.16-.85,4.52-1.27,7.08-1.27s4.98.44,7.18,1.32c2.19.88,4.06,2.18,5.59,3.91l-3.12,3.02c-1.28-1.34-2.72-2.34-4.32-3-1.6-.66-3.31-.98-5.14-.98s-3.64.32-5.26.96c-1.62.64-3.02,1.54-4.2,2.69-1.18,1.15-2.1,2.52-2.76,4.1-.66,1.58-.98,3.3-.98,5.16s.33,3.58.98,5.16c.66,1.58,1.58,2.95,2.76,4.1s2.58,2.05,4.2,2.69c1.62.64,3.37.96,5.26.96s3.54-.33,5.14-.98c1.6-.66,3.04-1.67,4.32-3.05l3.12,3.02c-1.54,1.73-3.4,3.04-5.59,3.94-2.19.9-4.6,1.34-7.22,1.34Z"></path><path d="M419.48,303.69c-4.42,0-7.89-1.26-10.42-3.79-2.53-2.53-3.79-6.22-3.79-11.09v-19.1h4.8v18.91c0,3.74.82,6.48,2.47,8.21,1.65,1.73,3.98,2.59,6.98,2.59s5.38-.86,7.03-2.59c1.65-1.73,2.47-4.46,2.47-8.21v-18.91h4.66v19.1c0,4.86-1.26,8.56-3.77,11.09-2.51,2.53-5.99,3.79-10.44,3.79Z"></path></g>
  </g>
  <g fill="#EDE7DC">
    <path xmlns="http://www.w3.org/2000/svg" d="M185.34,334.98c-.77,0-1.5-.11-2.2-.33-.7-.22-1.26-.5-1.67-.85l.63-1.41c.39.31.88.57,1.46.77.58.21,1.17.31,1.78.31.51,0,.93-.06,1.25-.17.32-.11.55-.26.7-.46s.22-.41.22-.65c0-.3-.11-.54-.32-.72-.21-.18-.49-.33-.83-.43-.34-.11-.72-.21-1.13-.3-.42-.09-.83-.2-1.25-.33-.42-.13-.79-.29-1.13-.49s-.62-.47-.83-.8-.32-.77-.32-1.29.14-1.02.43-1.46.72-.8,1.3-1.06c.58-.27,1.32-.4,2.22-.4.59,0,1.17.07,1.75.22s1.08.36,1.51.64l-.57,1.41c-.44-.26-.89-.46-1.36-.58s-.92-.19-1.34-.19c-.5,0-.91.06-1.22.18-.31.12-.54.28-.69.48-.15.2-.22.42-.22.67,0,.3.1.54.31.72s.49.32.83.43.72.2,1.14.3c.42.1.84.21,1.25.33.42.12.79.28,1.13.48.34.2.62.46.83.8s.31.76.31,1.27-.14,1.01-.43,1.45c-.29.44-.72.8-1.31,1.06-.59.27-1.33.4-2.23.4Z"></path>
    <path xmlns="http://www.w3.org/2000/svg" d="M191.12,334.84l4.41-9.8h1.79l4.42,9.8h-1.9l-3.79-8.83h.73l-3.78,8.83h-1.88ZM193.15,332.57l.49-1.43h5.29l.49,1.43h-6.27Z"></path>
    <path xmlns="http://www.w3.org/2000/svg" d="M204.39,334.84v-9.8h1.82v8.26h5.12v1.54h-6.94Z"></path>
    <path xmlns="http://www.w3.org/2000/svg" d="M218.59,334.98c-.77,0-1.47-.13-2.11-.38s-1.2-.6-1.68-1.06c-.48-.45-.84-.98-1.11-1.6s-.39-1.28-.39-2.01.13-1.4.39-2.01.63-1.14,1.11-1.6c.48-.45,1.04-.8,1.68-1.06s1.34-.38,2.1-.38,1.47.13,2.11.38,1.2.6,1.67,1.06c.48.45.84.98,1.11,1.6s.39,1.28.39,2.01-.13,1.4-.39,2.02-.63,1.15-1.11,1.6c-.48.45-1.03.8-1.67,1.05s-1.34.38-2.09.38ZM218.58,333.38c.49,0,.95-.08,1.37-.25s.78-.41,1.09-.72.55-.68.72-1.09c.17-.42.26-.88.26-1.38s-.09-.96-.26-1.38c-.17-.42-.41-.78-.72-1.09s-.67-.55-1.09-.72-.88-.25-1.37-.25-.95.08-1.37.25c-.42.17-.78.41-1.09.72-.31.31-.56.68-.73,1.09-.17.42-.26.88-.26,1.38s.09.95.26,1.37.41.79.72,1.1c.31.31.67.55,1.09.72s.88.25,1.37.25Z"></path>
    <path xmlns="http://www.w3.org/2000/svg" d="M227.19,334.84v-9.8h1.5l6.15,7.55h-.74v-7.55h1.81v9.8h-1.5l-6.15-7.55h.74v7.55h-1.81Z"></path>
    <path xmlns="http://www.w3.org/2000/svg" d="M249.73,334.98c-.75,0-1.44-.12-2.08-.37-.64-.25-1.2-.6-1.67-1.05-.47-.45-.84-.99-1.1-1.6-.26-.62-.39-1.29-.39-2.02s.13-1.4.39-2.02c.26-.62.63-1.15,1.11-1.6.48-.45,1.03-.8,1.67-1.05.63-.25,1.33-.37,2.09-.37.8,0,1.53.14,2.2.41.66.28,1.22.68,1.68,1.22l-1.18,1.11c-.36-.38-.75-.67-1.19-.86-.44-.19-.91-.29-1.43-.29s-.98.08-1.41.25-.79.41-1.11.71c-.31.31-.55.67-.73,1.09s-.26.88-.26,1.39.09.97.26,1.39.42.78.73,1.09c.31.31.68.55,1.11.71s.89.25,1.41.25.99-.1,1.43-.29c.44-.19.83-.48,1.19-.88l1.18,1.12c-.46.53-1.02.94-1.68,1.22-.66.28-1.4.42-2.21.42Z"></path>
    <path xmlns="http://www.w3.org/2000/svg" d="M260.76,334.98c-.77,0-1.47-.13-2.11-.38-.64-.25-1.2-.6-1.68-1.06-.48-.45-.84-.98-1.11-1.6-.26-.61-.39-1.28-.39-2.01s.13-1.4.39-2.01c.26-.61.63-1.14,1.11-1.6.48-.45,1.04-.8,1.68-1.06.64-.25,1.34-.38,2.1-.38s1.47.13,2.11.38,1.2.6,1.67,1.06c.48.45.84.98,1.11,1.6.26.61.39,1.28.39,2.01s-.13,1.4-.39,2.02c-.26.62-.63,1.15-1.11,1.6-.48.45-1.03.8-1.67,1.05s-1.34.38-2.09.38ZM260.74,333.38c.5,0,.95-.08,1.37-.25s.78-.41,1.09-.72c.31-.31.55-.68.72-1.09.17-.42.26-.88.26-1.38s-.09-.96-.26-1.38c-.17-.42-.41-.78-.72-1.09-.31-.31-.67-.55-1.09-.72s-.88-.25-1.37-.25-.95.08-1.36.25c-.42.17-.78.41-1.09.72-.31.31-.55.68-.73,1.09-.17.42-.26.88-.26,1.38s.09.95.26,1.37.41.79.72,1.1c.31.31.67.55,1.09.72.42.17.88.25,1.37.25Z"></path>
    <path xmlns="http://www.w3.org/2000/svg" d="M269.35,334.84v-9.8h1.5l6.15,7.55h-.74v-7.55h1.81v9.8h-1.5l-6.15-7.55h.74v7.55h-1.81Z"></path>
    <path xmlns="http://www.w3.org/2000/svg" d="M286.63,334.98c-.75,0-1.44-.12-2.08-.37-.64-.25-1.2-.6-1.67-1.05-.47-.45-.84-.99-1.1-1.6-.26-.62-.39-1.29-.39-2.02s.13-1.4.39-2.02c.26-.62.63-1.15,1.11-1.6.48-.45,1.03-.8,1.67-1.05.63-.25,1.33-.37,2.09-.37.8,0,1.54.14,2.2.41.66.28,1.22.68,1.68,1.22l-1.18,1.11c-.36-.38-.75-.67-1.19-.86s-.92-.29-1.43-.29-.98.08-1.41.25-.79.41-1.11.71c-.31.31-.55.67-.73,1.09s-.26.88-.26,1.39.09.97.26,1.39.42.78.73,1.09c.31.31.68.55,1.11.71s.89.25,1.41.25.99-.1,1.43-.29.83-.48,1.19-.88l1.18,1.12c-.46.53-1.02.94-1.68,1.22-.66.28-1.4.42-2.21.42Z"></path>
    <path xmlns="http://www.w3.org/2000/svg" d="M293.54,334.84v-9.8h7.15v1.53h-5.33v6.75h5.53v1.53h-7.35ZM295.22,330.61v-1.5h4.87v1.5h-4.87Z"></path>
    <path xmlns="http://www.w3.org/2000/svg" d="M304.33,334.84v-9.8h4.03c.87,0,1.61.14,2.23.42.62.28,1.1.68,1.43,1.2s.5,1.14.5,1.86-.17,1.34-.5,1.86c-.34.52-.81.92-1.43,1.2-.62.28-1.37.42-2.23.42h-3.02l.81-.85v3.68h-1.82ZM306.14,331.35l-.81-.88h2.94c.8,0,1.41-.17,1.81-.51s.61-.82.61-1.44-.2-1.11-.61-1.44-1.01-.5-1.81-.5h-2.94l.81-.9v5.67Z"></path>
    <path xmlns="http://www.w3.org/2000/svg" d="M317.32,334.84v-8.26h-3.25v-1.54h8.32v1.54h-3.25v8.26h-1.82Z"></path>
  </g>
</svg>