<?xml version="1.0"?>
<svg xmlns="http://www.w3.org/2000/svg" viewBox="186 110 132 132" role="img" aria-label="Mario Jarcu monogram">
  <g fill="#EDE7DC">
    <path xmlns="http://www.w3.org/2000/svg" d="M261.34,214.33c6.2.85,12.83-4.01,12.85-10.66l.15-53.86-23.09,23.18-22.16-22.95-.09,46.66c0,1.69-2.91,2.1-3.83,1.39-1.65-1.28-2.04-2.64-2.04-4.66l-.06-54.65c0-.44.62-1.47,1-1.59.46-.15,1.09.32,1.64.89l25.68,26.62,26.87-27.31,1.15-.34c.31-.09.73.62.95,1.06l-.06,65.87c-.8,6-3.84,10.95-8.3,13.67-5.35,3.26-11.53,3.55-16.87.82-4.98-2.55-8.32-7.5-8.2-13.06.03-1.61,1.65-3.09,2.79-3.02,1.91.12,2.81,1.57,2.95,3.39.34,4.44,3.75,7.86,8.66,8.53Z"></path>
    <path xmlns="http://www.w3.org/2000/svg" d="M259.08,205.19c1.18-.82,3.33-1.71,3.33-3.68v-24.7c-.95.75-2.17,1.83-2.99,1.81-1.59-.03-2.44-2.82-1.44-3.9,3.22-3.45,6.2-6.67,10.18-9.93l.1,37.54c0,3.14-2.66,5.93-5.38,6.17-1.79.15-4.28-1.37-3.81-3.31Z"></path>
  </g>
  <path fill="#EDE7DC" fill-rule="evenodd" d="M251.71,237.47c-34.04,0-61.74-27.7-61.74-61.74s27.7-61.74,61.74-61.74,61.74,27.7,61.74,61.74-27.7,61.74-61.74,61.74ZM251.71,119.08c-31.24,0-56.65,25.41-56.65,56.65s25.41,56.65,56.65,56.65,56.65-25.41,56.65-56.65-25.41-56.65-56.65-56.65Z"></path>
</svg>